<svg width="562" height="121" viewBox="0 0 562 121" fill="none" xmlns="http://www.w3.org/2000/svg">
<rect y="30" width="562" height="83" fill="#FF2800"/>
<path d="M25.418 57.7832L21.0234 53.793H37.3535L35.1211 57.9414L39.1641 72.6191L42.5566 57.9062L40.1836 53.793H54.9316L52.6465 58.0469L56.3906 72.7949L60.0293 58.0293L57.7617 53.793H69.6973L65.7422 57.3789L59.3438 79H49.5176L46.0898 65.2363L43.1719 79H32.8184L25.418 57.7832ZM74.127 74.5352V58.2402L69.1875 53.793H83.2148V63.4258H92.8828V53.793H106.576L101.971 58.2578V74.5352L106.91 79H92.8828V67.0996H83.2148V79H69.1875L74.127 74.5352ZM111.551 74.5879L119.83 58.0996L116.051 53.793H136.652L133.471 58.2578L140.889 74.5527L145.512 79H127.055L130.887 74.5879L130.131 72.7422H118.529L117.703 74.5879L122.748 79H106.383L111.551 74.5879ZM128.654 69.0684L124.629 59.1543L120.182 69.0684H128.654ZM156.305 74.5527V57.3086H152.771L146.127 64.6914L145.758 53.793H156.217L156.305 53.8633V53.793H176.168L175.799 64.6914L168.979 57.3086H165.568V74.5527L171.791 79H150.293L156.305 74.5527ZM210.34 74.5527V57.3086H206.807L200.162 64.6914L199.793 53.793H210.252L210.34 53.8633V53.793H230.203L229.834 64.6914L223.014 57.3086H219.604V74.5527L225.826 79H204.328L210.34 74.5527ZM236.619 74.5352V58.2402L231.68 53.793H245.707V63.4258H255.375V53.793H269.068L264.463 58.2578V74.5352L269.402 79H255.375V67.0996H245.707V79H231.68L236.619 74.5352ZM275.396 74.5352V58.2578L270.457 53.793H302.396L302.045 62.5117L295.031 57.8184H284.66V63.6367H295.242V67.5039H284.66V74.9746H295.031L302.221 70.6855V79H270.457L275.396 74.5352ZM327.902 66.3965C327.902 64.8379 328.131 63.4258 328.588 62.1602C329.045 60.8945 329.678 59.7695 330.486 58.7852C331.295 57.8008 332.25 56.957 333.352 56.2539C334.453 55.5391 335.648 54.9531 336.938 54.4961C338.238 54.0273 339.604 53.6816 341.033 53.459C342.463 53.2363 343.91 53.125 345.375 53.125C346.453 53.125 347.473 53.1895 348.434 53.3184C349.395 53.4473 350.291 53.623 351.123 53.8457C351.967 54.0566 352.74 54.3027 353.443 54.584C354.146 54.8652 354.779 55.1582 355.342 55.4629L356.625 53.793H360.299V62.7227L355.641 63.6016C355.359 62.6523 354.943 61.7676 354.393 60.9473C353.842 60.127 353.18 59.418 352.406 58.8203C351.633 58.2227 350.754 57.7539 349.77 57.4141C348.797 57.0625 347.736 56.8867 346.588 56.8867C345.111 56.8867 343.846 57.1504 342.791 57.6777C341.736 58.1934 340.869 58.8906 340.189 59.7695C339.521 60.6367 339.029 61.6445 338.713 62.793C338.396 63.9414 338.238 65.1426 338.238 66.3965C338.238 67.9316 338.461 69.291 338.906 70.4746C339.363 71.6582 339.996 72.6543 340.805 73.4629C341.613 74.2598 342.568 74.8633 343.67 75.2734C344.783 75.6836 346.002 75.8887 347.326 75.8887C348.357 75.8887 349.33 75.7598 350.244 75.502C351.158 75.2324 351.961 74.8281 352.652 74.2891C353.355 73.7383 353.924 73.0469 354.357 72.2148C354.803 71.3828 355.072 70.3984 355.166 69.2617H360.545C360.545 70.375 360.363 71.4062 360 72.3555C359.648 73.3047 359.145 74.166 358.488 74.9395C357.844 75.7129 357.064 76.3984 356.15 76.9961C355.236 77.582 354.217 78.0742 353.092 78.4727C351.967 78.8711 350.754 79.1699 349.453 79.3691C348.164 79.5801 346.811 79.6855 345.393 79.6855C344.057 79.6855 342.691 79.5918 341.297 79.4043C339.914 79.2285 338.572 78.9355 337.271 78.5254C335.982 78.1152 334.77 77.5762 333.633 76.9082C332.496 76.2285 331.5 75.3965 330.645 74.4121C329.801 73.4277 329.133 72.2734 328.641 70.9492C328.148 69.625 327.902 68.1074 327.902 66.3965ZM364.008 66.3965C364.008 64.7793 364.242 63.3262 364.711 62.0371C365.191 60.748 365.836 59.6113 366.645 58.627C367.453 57.6426 368.402 56.8047 369.492 56.1133C370.582 55.4102 371.736 54.8418 372.955 54.4082C374.186 53.9629 375.451 53.6406 376.752 53.4414C378.053 53.2305 379.324 53.125 380.566 53.125C381.926 53.125 383.279 53.2305 384.627 53.4414C385.986 53.6406 387.275 53.9629 388.494 54.4082C389.725 54.8418 390.867 55.4102 391.922 56.1133C392.977 56.8047 393.891 57.6426 394.664 58.627C395.449 59.6113 396.059 60.748 396.492 62.0371C396.938 63.3262 397.16 64.7793 397.16 66.3965C397.16 67.9902 396.932 69.4258 396.475 70.7031C396.018 71.9805 395.391 73.1113 394.594 74.0957C393.797 75.0801 392.859 75.9238 391.781 76.627C390.715 77.3301 389.566 77.9102 388.336 78.3672C387.117 78.8242 385.84 79.1582 384.504 79.3691C383.18 79.5801 381.867 79.6855 380.566 79.6855C379.266 79.6855 377.953 79.5859 376.629 79.3867C375.305 79.1875 374.027 78.8711 372.797 78.4375C371.578 78.0039 370.43 77.4414 369.352 76.75C368.285 76.0586 367.354 75.2207 366.557 74.2363C365.771 73.252 365.15 72.1152 364.693 70.8262C364.236 69.5254 364.008 68.0488 364.008 66.3965ZM374.344 66.3965C374.344 67.7793 374.496 69.0625 374.801 70.2461C375.105 71.418 375.533 72.4375 376.084 73.3047C376.635 74.1719 377.291 74.8516 378.053 75.3438C378.814 75.8359 379.652 76.082 380.566 76.082C381.48 76.082 382.318 75.8301 383.08 75.3262C383.842 74.8223 384.498 74.1367 385.049 73.2695C385.611 72.4023 386.045 71.3828 386.35 70.2109C386.666 69.0273 386.824 67.7559 386.824 66.3965C386.824 65.0254 386.678 63.7422 386.385 62.5469C386.092 61.3398 385.67 60.2969 385.119 59.418C384.58 58.5273 383.924 57.8301 383.15 57.3262C382.377 56.8105 381.516 56.5527 380.566 56.5527C379.652 56.5527 378.814 56.8105 378.053 57.3262C377.291 57.8301 376.635 58.5273 376.084 59.418C375.533 60.2969 375.105 61.3398 374.801 62.5469C374.496 63.7422 374.344 65.0254 374.344 66.3965ZM404.068 74.5527V58.8906L398.83 53.793H411.557L420.363 67.3633L428.291 53.793H441.809L436.324 58.082V74.5352L441.439 79H422.49L427.412 74.5352V65.4473L419.854 79H417.305L408.85 65.5879V74.5527L414.141 79H399.48L404.068 74.5527ZM447.416 74.5527V58.8906L442.178 53.793H454.904L463.711 67.3633L471.639 53.793H485.156L479.672 58.082V74.5352L484.787 79H465.838L470.76 74.5352V65.4473L463.201 79H460.652L452.197 65.5879V74.5527L457.488 79H442.828L447.416 74.5527ZM490.57 58.2578L486.492 53.793H499.658V74.5352L503.736 79H490.57V58.2578ZM516.305 74.5527V57.3086H512.771L506.127 64.6914L505.758 53.793H516.217L516.305 53.8633V53.793H536.168L535.799 64.6914L528.979 57.3086H525.568V74.5527L531.791 79H510.293L516.305 74.5527Z" fill="white"/>
</svg>
